<mxfile host="app.diagrams.net" modified="2021-08-22T09:13:40.375Z" agent="5.0 (Macintosh; Intel Mac OS X 10_15_7) AppleWebKit/605.1.15 (KHTML, like Gecko) Version/14.1.2 Safari/605.1.15" etag="UIFr2l9XhLXRG5wL3v3t" version="14.9.8" type="github">
  <diagram id="C5RBs43oDa-KdzZeNtuy" name="Page-1">
    <mxGraphModel dx="1321" dy="974" grid="1" gridSize="10" guides="1" tooltips="1" connect="1" arrows="1" fold="1" page="1" pageScale="1" pageWidth="827" pageHeight="1169" math="0" shadow="0">
      <root>
        <mxCell id="WIyWlLk6GJQsqaUBKTNV-0" />
        <mxCell id="WIyWlLk6GJQsqaUBKTNV-1" parent="WIyWlLk6GJQsqaUBKTNV-0" />
        <mxCell id="WIyWlLk6GJQsqaUBKTNV-2" value="" style="rounded=0;html=1;jettySize=auto;orthogonalLoop=1;fontSize=11;endArrow=block;endFill=0;endSize=8;strokeWidth=1;shadow=0;labelBackgroundColor=none;edgeStyle=orthogonalEdgeStyle;" parent="WIyWlLk6GJQsqaUBKTNV-1" source="WIyWlLk6GJQsqaUBKTNV-3" target="WIyWlLk6GJQsqaUBKTNV-6" edge="1">
          <mxGeometry relative="1" as="geometry" />
        </mxCell>
        <mxCell id="WIyWlLk6GJQsqaUBKTNV-3" value="Termintor" style="rounded=1;whiteSpace=wrap;html=1;fontSize=12;glass=0;strokeWidth=1;shadow=0;" parent="WIyWlLk6GJQsqaUBKTNV-1" vertex="1">
          <mxGeometry x="410" y="80" width="120" height="40" as="geometry" />
        </mxCell>
        <mxCell id="WIyWlLk6GJQsqaUBKTNV-4" value="Yes" style="rounded=0;html=1;jettySize=auto;orthogonalLoop=1;fontSize=11;endArrow=block;endFill=0;endSize=8;strokeWidth=1;shadow=0;labelBackgroundColor=none;edgeStyle=orthogonalEdgeStyle;" parent="WIyWlLk6GJQsqaUBKTNV-1" source="WIyWlLk6GJQsqaUBKTNV-6" edge="1">
          <mxGeometry y="20" relative="1" as="geometry">
            <mxPoint as="offset" />
            <mxPoint x="470" y="400" as="targetPoint" />
          </mxGeometry>
        </mxCell>
        <mxCell id="WIyWlLk6GJQsqaUBKTNV-6" value="Decisions" style="rhombus;whiteSpace=wrap;html=1;shadow=0;fontFamily=Helvetica;fontSize=12;align=center;strokeWidth=1;spacing=6;spacingTop=-4;" parent="WIyWlLk6GJQsqaUBKTNV-1" vertex="1">
          <mxGeometry x="420" y="200" width="100" height="80" as="geometry" />
        </mxCell>
        <mxCell id="ASxkf-wgXfqjvneMbAA9-0" value="&lt;h1&gt;Terminator&lt;/h1&gt;&lt;font style=&quot;font-size: 12px&quot;&gt;&lt;span style=&quot;color: rgb(34 , 60 , 80) ; font-family: &amp;#34;tradegothicnextw01-ligh 693250&amp;#34; ; background-color: rgb(255 , 255 , 255)&quot;&gt;It gets placed at the beginning of the flow (and often at the end, too)&lt;/span&gt;&lt;span style=&quot;color: rgb(34 , 60 , 80) ; font-family: &amp;#34;tradegothicnextw01-ligh 693250&amp;#34; ; background-color: rgb(255 , 255 , 255)&quot;&gt;.&lt;/span&gt;&lt;/font&gt;&lt;p&gt;.&lt;/p&gt;" style="text;html=1;strokeColor=none;fillColor=none;spacing=5;spacingTop=-20;whiteSpace=wrap;overflow=hidden;rounded=0;" vertex="1" parent="WIyWlLk6GJQsqaUBKTNV-1">
          <mxGeometry y="80" width="190" height="120" as="geometry" />
        </mxCell>
        <mxCell id="ASxkf-wgXfqjvneMbAA9-1" value="&lt;h1&gt;Diamonds&lt;/h1&gt;&lt;p&gt;&lt;span style=&quot;color: rgb(34 , 60 , 80) ; background-color: rgb(255 , 255 , 255)&quot;&gt;&lt;font style=&quot;font-size: 12px&quot;&gt;Diamonds can be simple yes/no questions, or they can be used to show multiple different states.&lt;/font&gt;&lt;/span&gt;&lt;br&gt;&lt;/p&gt;&lt;p&gt;&lt;span style=&quot;color: rgb(34 , 60 , 80) ; background-color: rgb(255 , 255 , 255)&quot;&gt;&lt;font style=&quot;font-size: 12px&quot;&gt;Arrows coming out of decisions always need to be labeled. If label is an utterance use quotation marks &quot;..&quot;&lt;/font&gt;&lt;/span&gt;&lt;/p&gt;" style="text;html=1;strokeColor=none;fillColor=none;spacing=5;spacingTop=-20;whiteSpace=wrap;overflow=hidden;rounded=0;" vertex="1" parent="WIyWlLk6GJQsqaUBKTNV-1">
          <mxGeometry y="200" width="190" height="180" as="geometry" />
        </mxCell>
        <mxCell id="ASxkf-wgXfqjvneMbAA9-4" style="edgeStyle=orthogonalEdgeStyle;rounded=0;orthogonalLoop=1;jettySize=auto;html=1;exitX=0.5;exitY=1;exitDx=0;exitDy=0;" edge="1" parent="WIyWlLk6GJQsqaUBKTNV-1" source="ASxkf-wgXfqjvneMbAA9-2">
          <mxGeometry relative="1" as="geometry">
            <mxPoint x="470" y="600" as="targetPoint" />
          </mxGeometry>
        </mxCell>
        <mxCell id="ASxkf-wgXfqjvneMbAA9-2" value="State" style="shape=process;whiteSpace=wrap;html=1;backgroundOutline=1;" vertex="1" parent="WIyWlLk6GJQsqaUBKTNV-1">
          <mxGeometry x="410" y="400" width="120" height="60" as="geometry" />
        </mxCell>
        <mxCell id="ASxkf-wgXfqjvneMbAA9-3" value="&lt;h1&gt;States&lt;/h1&gt;&lt;span style=&quot;color: rgb(34 , 60 , 80) ; font-family: &amp;#34;tradegothicnextw01-ligh 693250&amp;#34; ; font-size: 18px ; background-color: rgb(255 , 255 , 255)&quot;&gt;&amp;nbsp;&lt;/span&gt;&lt;span style=&quot;color: rgb(34 , 60 , 80) ; background-color: rgb(255 , 255 , 255)&quot;&gt;&lt;font style=&quot;font-size: 12px&quot;&gt;They are contained flows that focus on a specific user tasks. They often are the same as intents.&amp;nbsp;&lt;/font&gt;&lt;/span&gt;&lt;span style=&quot;color: rgb(34 , 60 , 80) ; background-color: rgb(255 , 255 , 255)&quot;&gt;&lt;font style=&quot;font-size: 12px&quot;&gt;States help keep the Overview flow clean and contained. They also help showcase the fact that there are multiple different states to a flow.&amp;nbsp;&lt;/font&gt;&lt;/span&gt;&lt;p&gt;.&lt;/p&gt;" style="text;html=1;strokeColor=none;fillColor=none;spacing=5;spacingTop=-20;whiteSpace=wrap;overflow=hidden;rounded=0;" vertex="1" parent="WIyWlLk6GJQsqaUBKTNV-1">
          <mxGeometry y="400" width="190" height="200" as="geometry" />
        </mxCell>
        <mxCell id="ASxkf-wgXfqjvneMbAA9-11" value="" style="edgeStyle=orthogonalEdgeStyle;rounded=0;orthogonalLoop=1;jettySize=auto;html=1;" edge="1" parent="WIyWlLk6GJQsqaUBKTNV-1" source="ASxkf-wgXfqjvneMbAA9-5" target="ASxkf-wgXfqjvneMbAA9-7">
          <mxGeometry relative="1" as="geometry" />
        </mxCell>
        <mxCell id="ASxkf-wgXfqjvneMbAA9-5" value="Prompts" style="rounded=0;whiteSpace=wrap;html=1;" vertex="1" parent="WIyWlLk6GJQsqaUBKTNV-1">
          <mxGeometry x="410" y="600" width="120" height="60" as="geometry" />
        </mxCell>
        <mxCell id="ASxkf-wgXfqjvneMbAA9-6" value="&lt;h1&gt;Rectangle&lt;/h1&gt;&lt;p&gt;&lt;span style=&quot;color: rgb(34 , 60 , 80) ; background-color: rgb(255 , 255 , 255)&quot;&gt;Usually used to show&amp;nbsp;&lt;/span&gt;&lt;span style=&quot;box-sizing: border-box ; color: rgb(34 , 60 , 80)&quot;&gt;&lt;b&gt;prompts&lt;/b&gt;&lt;/span&gt;&lt;span style=&quot;background-color: rgb(255 , 255 , 255)&quot;&gt;&lt;font color=&quot;#223c50&quot;&gt;, where the system asks the user a question to gather additional information needed to&amp;nbsp;&lt;span&gt;fulfil&lt;/span&gt;&amp;nbsp;a request.&lt;/font&gt;&lt;/span&gt;&lt;br&gt;&lt;/p&gt;" style="text;html=1;strokeColor=none;fillColor=none;spacing=5;spacingTop=-20;whiteSpace=wrap;overflow=hidden;rounded=0;" vertex="1" parent="WIyWlLk6GJQsqaUBKTNV-1">
          <mxGeometry y="600" width="190" height="120" as="geometry" />
        </mxCell>
        <mxCell id="ASxkf-wgXfqjvneMbAA9-19" style="edgeStyle=orthogonalEdgeStyle;rounded=0;orthogonalLoop=1;jettySize=auto;html=1;entryX=0.5;entryY=0;entryDx=0;entryDy=0;" edge="1" parent="WIyWlLk6GJQsqaUBKTNV-1" source="ASxkf-wgXfqjvneMbAA9-7" target="ASxkf-wgXfqjvneMbAA9-17">
          <mxGeometry relative="1" as="geometry">
            <mxPoint x="470" y="1030" as="targetPoint" />
          </mxGeometry>
        </mxCell>
        <mxCell id="ASxkf-wgXfqjvneMbAA9-7" value="System Action" style="shape=parallelogram;perimeter=parallelogramPerimeter;whiteSpace=wrap;html=1;fixedSize=1;" vertex="1" parent="WIyWlLk6GJQsqaUBKTNV-1">
          <mxGeometry x="410" y="760" width="120" height="60" as="geometry" />
        </mxCell>
        <mxCell id="ASxkf-wgXfqjvneMbAA9-10" style="edgeStyle=orthogonalEdgeStyle;rounded=0;orthogonalLoop=1;jettySize=auto;html=1;exitX=0.5;exitY=1;exitDx=0;exitDy=0;" edge="1" parent="WIyWlLk6GJQsqaUBKTNV-1" source="ASxkf-wgXfqjvneMbAA9-7" target="ASxkf-wgXfqjvneMbAA9-7">
          <mxGeometry relative="1" as="geometry" />
        </mxCell>
        <mxCell id="ASxkf-wgXfqjvneMbAA9-12" value="&lt;h1&gt;System Action&lt;/h1&gt;&lt;p&gt;&lt;span style=&quot;color: rgb(34 , 60 , 80) ; background-color: rgb(255 , 255 , 255)&quot;&gt;&lt;font style=&quot;font-size: 12px&quot;&gt;It is used to explain the logic to developers, when the system takes an action on the backend of the system without necessarily requiring input from the user.&lt;/font&gt;&lt;/span&gt;&lt;br&gt;&lt;/p&gt;" style="text;html=1;strokeColor=none;fillColor=none;spacing=5;spacingTop=-20;whiteSpace=wrap;overflow=hidden;rounded=0;" vertex="1" parent="WIyWlLk6GJQsqaUBKTNV-1">
          <mxGeometry y="760" width="190" height="130" as="geometry" />
        </mxCell>
        <mxCell id="ASxkf-wgXfqjvneMbAA9-13" value="" style="shape=curlyBracket;whiteSpace=wrap;html=1;rounded=1;" vertex="1" parent="WIyWlLk6GJQsqaUBKTNV-1">
          <mxGeometry x="380" y="920" width="20" height="120" as="geometry" />
        </mxCell>
        <mxCell id="ASxkf-wgXfqjvneMbAA9-14" value="Note" style="text;html=1;strokeColor=none;fillColor=none;align=center;verticalAlign=middle;whiteSpace=wrap;rounded=0;" vertex="1" parent="WIyWlLk6GJQsqaUBKTNV-1">
          <mxGeometry x="400" y="930" width="40" height="20" as="geometry" />
        </mxCell>
        <mxCell id="ASxkf-wgXfqjvneMbAA9-16" value="&lt;h1&gt;Notes&lt;/h1&gt;&lt;p&gt;Usually used to give more details for system processes, to clarify a decision logic, or to show sample utterances.&lt;/p&gt;" style="text;html=1;strokeColor=none;fillColor=none;spacing=5;spacingTop=-20;whiteSpace=wrap;overflow=hidden;rounded=0;" vertex="1" parent="WIyWlLk6GJQsqaUBKTNV-1">
          <mxGeometry y="920" width="190" height="120" as="geometry" />
        </mxCell>
        <mxCell id="ASxkf-wgXfqjvneMbAA9-17" value="Response" style="shape=document;whiteSpace=wrap;html=1;boundedLbl=1;" vertex="1" parent="WIyWlLk6GJQsqaUBKTNV-1">
          <mxGeometry x="410" y="1080" width="120" height="80" as="geometry" />
        </mxCell>
        <mxCell id="ASxkf-wgXfqjvneMbAA9-20" value="&lt;h1&gt;Response&lt;/h1&gt;&lt;p&gt;&lt;span style=&quot;color: rgb(34 , 60 , 80) ; background-color: rgb(255 , 255 , 255)&quot;&gt;Responses are audio-only and are simply read out loud; the system doesn’t ask a question and doesn’t expect the user to give an answer&lt;/span&gt;&lt;span style=&quot;color: rgb(34 , 60 , 80) ; background-color: rgb(255 , 255 , 255)&quot;&gt;. The system moves on without any additional user information after a response.&lt;/span&gt;&lt;br&gt;&lt;/p&gt;" style="text;html=1;strokeColor=none;fillColor=none;spacing=5;spacingTop=-20;whiteSpace=wrap;overflow=hidden;rounded=0;" vertex="1" parent="WIyWlLk6GJQsqaUBKTNV-1">
          <mxGeometry y="1080" width="190" height="160" as="geometry" />
        </mxCell>
      </root>
    </mxGraphModel>
  </diagram>
</mxfile>
